<?xml version="1.0" encoding="utf-8"?>
<!-- Generator: Adobe Illustrator 19.2.1, SVG Export Plug-In . SVG Version: 6.00 Build 0)  -->
<svg version="1.1" id="Layer_1" xmlns="http://www.w3.org/2000/svg" xmlns:xlink="http://www.w3.org/1999/xlink" x="0px" y="0px"
	 viewBox="0 0 84.9 84.9" style="enable-background:new 0 0 84.9 84.9;" xml:space="preserve">
<style type="text/css">
	.st0{fill:none;}
	.st1{fill:#333333;}
	.st2{fill:#26A69A;stroke:#26A69A;}
	.st3{fill:none;stroke:#FFFFFF;stroke-width:1.5;}
</style>
<g>
	<title>background</title>
	<rect id="canvas_background" x="-1" y="-1" class="st0" width="642" height="482"/>
</g>
<g>
	<title>Layer 1</title>
	<g id="svg_1">
		<g id="svg_2">
			<path id="svg_3" class="st1" d="M71,63.1V36.2c0-1,0.2-1.3-0.8-1.3h-41c-1,0-4.1,0.3-4.1,1.3v5.7h0.8c-6.9,0-12.6,5.4-12.6,12.8
				s5.6,13.1,12.6,13.1l0,0c2,10,12.2,16.1,21.9,16.1h5.3C63.8,83.9,71,74.8,71,63.1z M25.8,64.9c-4.9,0-9.3-4.5-9.3-9.8
				s3.6-9.8,8.6-9.8l0,0v22c0,0.2,2.3-2.5,2.3-2.5C27.3,64.9,25.8,64.9,25.8,64.9z M29,63.1V38.9h38v24.3c0,9.5-5.3,17.7-14.1,17.7
				h-5.3C38.4,80.9,29,72.3,29,63.1z"/>
			<path id="svg_4" class="st2" d="M38.8,27.1c-0.8,0.6-1,1.8-0.4,2.6c0.4,0.5,0.9,0.8,1.5,0.8c0.4,0,0.7-0.1,1.1-0.4
				c0.3-0.2,2.7-2.1,3-5.4c0.2-2.3-0.8-4.5-2.8-6.5c-3.5-3.7-0.6-7.1,0-7.7c0.7-0.7,0.7-1.9,0-2.7c-0.7-0.7-1.9-0.8-2.6,0
				c-0.1,0.1-2.8,2.9-2.8,6.7c0,2.3,0.9,4.5,2.8,6.4c1.2,1.3,1.8,2.4,1.7,3.5C40.2,26,38.9,27,38.8,27.1z"/>
			<path id="svg_5" class="st2" d="M57.1,27.1c-0.8,0.6-1,1.8-0.4,2.6c0.4,0.5,0.9,0.8,1.5,0.8c0.4,0,0.7-0.1,1.1-0.4
				c0.1-0.1,3.3-2.5,3.6-6.5c0.2-2.7-0.9-5.4-3.4-7.9c-1.5-1.6-2.3-3.3-2.3-5c0-3,2.3-5.4,2.3-5.4c0.7-0.7,0.7-1.9,0-2.7
				c-0.7-0.7-1.9-0.8-2.6,0c-0.1,0.1-3.4,3.5-3.4,8.1c0,2.8,1.1,5.4,3.4,7.8c1.6,1.7,2.4,3.3,2.3,4.9C59.1,25.5,57.2,27,57.1,27.1z"
				/>
		</g>
	</g>
	<g id="svg_6">
	</g>
	<g id="svg_7">
	</g>
	<g id="svg_8">
	</g>
	<g id="svg_9">
	</g>
	<g id="svg_10">
	</g>
	<g id="svg_11">
	</g>
	<g id="svg_12">
	</g>
	<g id="svg_13">
	</g>
	<g id="svg_14">
	</g>
	<g id="svg_15">
	</g>
	<g id="svg_16">
	</g>
	<g id="svg_17">
	</g>
	<g id="svg_18">
	</g>
	<g id="svg_19">
	</g>
	<g id="svg_20">
	</g>
	<path id="svg_21" class="st1" d="M40,66.3c-3,0-4.9-2.7-4.9-6.1l0,0c0-2.7,2-5,4.2-5.8l0,0c0.1-2.3,2-4.2,4.1-4.2l0,0
		c0.7,0,1.4,0.2,2,0.5l0,0c1.2-2.2,3.4-3.6,5.9-3.6l0,0c3.7,0,6.8,3.2,6.8,7.3l0,0c2.2,0.8,3.8,3.3,3.8,6l0,0c0,3.4-2.5,6.4-5.6,6.4
		l0,0H40V66.3z M57.1,56.2c-0.5-0.1-0.8-0.6-0.8-1.1l0,0c0-0.2,0-0.3,0-0.5l0,0c0-3-2.2-5.4-4.9-5.4l0,0c-2.1,0-3.9,1.5-4.6,3.5l0,0
		c-0.1,0.3-0.4,0.6-0.7,0.6l0,0c-0.3,0.1-0.7-0.1-0.9-0.3l0,0c-0.4-0.5-0.9-0.7-1.5-0.7l0,0c-1.2,0-2.1,1-2.1,2.3l0,0
		c0,0.1,0,0.3,0,0.4l0,0c0,0.3,0,0.6-0.2,0.8l0,0c-0.1,0.2-0.4,0.4-0.6,0.4l0,0c-1.8,0.3-3.2,2.3-3.1,4.3l0,0c0,2.3,1.7,4.4,3.8,4.4
		l0,0h14.9c2.1,0,3.8-2.1,3.8-4.4l0,0c0-2-1.3-3.8-3.1-4.1l0,0"/>
	<path id="svg_22" class="st3" d="M21.7,64.7"/>
</g>
</svg>
